<?xml version="1.0" encoding="UTF-8" standalone="yes"?>
<!-- 使用 qrencode 4.1.1 生成 -->
<svg width="5.19cm" height="5.19cm" viewBox="0 0 49 49" preserveAspectRatio="none" version="1.1" xmlns="http://www.w3.org/2000/svg">
	<g id="QRcode">
		<rect x="0" y="0" width="49" height="49" fill="#ffffff"/>
		<path style="stroke:#000000" transform="translate(4,4.5)" d="M0,0h1M1,0h1M2,0h1M3,0h1M4,0h1M5,0h1M6,0h1M10,0h1M11,0h1M18,0h1M19,0h1M21,0h1M23,0h1M25,0h1M26,0h1M27,0h1M32,0h1M34,0h1M35,0h1M36,0h1M37,0h1M38,0h1M39,0h1M40,0h1M0,1h1M6,1h1M9,1h1M10,1h1M11,1h1M13,1h1M15,1h1M16,1h1M17,1h1M20,1h1M23,1h1M24,1h1M25,1h1M26,1h1M27,1h1M28,1h1M29,1h1M30,1h1M31,1h1M34,1h1M40,1h1M0,2h1M2,2h1M3,2h1M4,2h1M6,2h1M9,2h1M10,2h1M11,2h1M12,2h1M13,2h1M14,2h1M15,2h1M16,2h1M17,2h1M20,2h1M21,2h1M22,2h1M26,2h1M27,2h1M29,2h1M31,2h1M32,2h1M34,2h1M36,2h1M37,2h1M38,2h1M40,2h1M0,3h1M2,3h1M3,3h1M4,3h1M6,3h1M9,3h1M12,3h1M17,3h1M21,3h1M22,3h1M24,3h1M26,3h1M27,3h1M28,3h1M32,3h1M34,3h1M36,3h1M37,3h1M38,3h1M40,3h1M0,4h1M2,4h1M3,4h1M4,4h1M6,4h1M10,4h1M14,4h1M21,4h1M23,4h1M26,4h1M27,4h1M28,4h1M29,4h1M32,4h1M34,4h1M36,4h1M37,4h1M38,4h1M40,4h1M0,5h1M6,5h1M8,5h1M9,5h1M11,5h1M14,5h1M19,5h1M22,5h1M27,5h1M28,5h1M29,5h1M30,5h1M31,5h1M34,5h1M40,5h1M0,6h1M1,6h1M2,6h1M3,6h1M4,6h1M5,6h1M6,6h1M8,6h1M10,6h1M12,6h1M14,6h1M16,6h1M18,6h1M20,6h1M22,6h1M24,6h1M26,6h1M28,6h1M30,6h1M32,6h1M34,6h1M35,6h1M36,6h1M37,6h1M38,6h1M39,6h1M40,6h1M9,7h1M10,7h1M11,7h1M13,7h1M14,7h1M15,7h1M17,7h1M18,7h1M21,7h1M24,7h1M26,7h1M27,7h1M29,7h1M30,7h1M32,7h1M0,8h1M3,8h1M5,8h1M6,8h1M8,8h1M9,8h1M11,8h1M12,8h1M14,8h1M15,8h1M16,8h1M19,8h1M21,8h1M23,8h1M25,8h1M26,8h1M28,8h1M33,8h1M35,8h1M0,9h1M1,9h1M3,9h1M4,9h1M5,9h1M8,9h1M11,9h1M12,9h1M16,9h1M18,9h1M20,9h1M21,9h1M22,9h1M23,9h1M24,9h1M25,9h1M26,9h1M34,9h1M35,9h1M38,9h1M40,9h1M1,10h1M4,10h1M6,10h1M9,10h1M11,10h1M14,10h1M15,10h1M16,10h1M17,10h1M19,10h1M21,10h1M22,10h1M26,10h1M31,10h1M33,10h1M34,10h1M38,10h1M39,10h1M0,11h1M4,11h1M5,11h1M8,11h1M9,11h1M13,11h1M14,11h1M16,11h1M18,11h1M20,11h1M21,11h1M23,11h1M24,11h1M25,11h1M26,11h1M27,11h1M28,11h1M30,11h1M34,11h1M35,11h1M36,11h1M38,11h1M0,12h1M1,12h1M4,12h1M6,12h1M10,12h1M11,12h1M15,12h1M17,12h1M20,12h1M21,12h1M25,12h1M28,12h1M29,12h1M31,12h1M32,12h1M33,12h1M34,12h1M35,12h1M37,12h1M39,12h1M40,12h1M1,13h1M4,13h1M5,13h1M9,13h1M13,13h1M14,13h1M15,13h1M17,13h1M20,13h1M21,13h1M22,13h1M23,13h1M29,13h1M31,13h1M32,13h1M39,13h1M6,14h1M11,14h1M12,14h1M15,14h1M19,14h1M23,14h1M25,14h1M32,14h1M34,14h1M37,14h1M38,14h1M40,14h1M4,15h1M7,15h1M8,15h1M9,15h1M14,15h1M15,15h1M17,15h1M18,15h1M20,15h1M21,15h1M23,15h1M25,15h1M26,15h1M29,15h1M30,15h1M33,15h1M36,15h1M0,16h1M1,16h1M3,16h1M6,16h1M7,16h1M9,16h1M10,16h1M12,16h1M13,16h1M14,16h1M15,16h1M16,16h1M17,16h1M21,16h1M22,16h1M31,16h1M32,16h1M33,16h1M35,16h1M0,17h1M3,17h1M4,17h1M5,17h1M10,17h1M14,17h1M16,17h1M17,17h1M18,17h1M20,17h1M21,17h1M22,17h1M24,17h1M25,17h1M26,17h1M29,17h1M31,17h1M33,17h1M34,17h1M35,17h1M38,17h1M40,17h1M0,18h1M1,18h1M2,18h1M4,18h1M5,18h1M6,18h1M7,18h1M8,18h1M10,18h1M11,18h1M12,18h1M13,18h1M16,18h1M17,18h1M22,18h1M24,18h1M28,18h1M31,18h1M33,18h1M34,18h1M35,18h1M36,18h1M39,18h1M40,18h1M2,19h1M3,19h1M7,19h1M10,19h1M20,19h1M21,19h1M23,19h1M24,19h1M29,19h1M30,19h1M31,19h1M32,19h1M33,19h1M34,19h1M35,19h1M37,19h1M2,20h1M5,20h1M6,20h1M9,20h1M10,20h1M11,20h1M14,20h1M15,20h1M16,20h1M17,20h1M22,20h1M23,20h1M24,20h1M25,20h1M26,20h1M27,20h1M28,20h1M33,20h1M34,20h1M35,20h1M37,20h1M38,20h1M39,20h1M0,21h1M3,21h1M4,21h1M9,21h1M13,21h1M17,21h1M20,21h1M21,21h1M22,21h1M25,21h1M28,21h1M29,21h1M30,21h1M32,21h1M34,21h1M37,21h1M39,21h1M40,21h1M0,22h1M1,22h1M2,22h1M3,22h1M6,22h1M9,22h1M10,22h1M12,22h1M14,22h1M17,22h1M18,22h1M19,22h1M24,22h1M26,22h1M29,22h1M30,22h1M31,22h1M32,22h1M33,22h1M34,22h1M35,22h1M37,22h1M38,22h1M39,22h1M1,23h1M2,23h1M8,23h1M10,23h1M11,23h1M13,23h1M14,23h1M15,23h1M16,23h1M20,23h1M21,23h1M24,23h1M25,23h1M27,23h1M28,23h1M30,23h1M31,23h1M32,23h1M37,23h1M38,23h1M40,23h1M4,24h1M6,24h1M9,24h1M10,24h1M11,24h1M13,24h1M14,24h1M17,24h1M20,24h1M21,24h1M23,24h1M25,24h1M28,24h1M29,24h1M32,24h1M34,24h1M0,25h1M1,25h1M2,25h1M3,25h1M4,25h1M7,25h1M11,25h1M15,25h1M16,25h1M19,25h1M20,25h1M21,25h1M24,25h1M25,25h1M31,25h1M34,25h1M0,26h1M1,26h1M2,26h1M4,26h1M6,26h1M7,26h1M9,26h1M10,26h1M16,26h1M23,26h1M25,26h1M26,26h1M28,26h1M29,26h1M30,26h1M33,26h1M34,26h1M36,26h1M37,26h1M39,26h1M40,26h1M1,27h1M2,27h1M3,27h1M4,27h1M5,27h1M7,27h1M8,27h1M10,27h1M11,27h1M12,27h1M16,27h1M17,27h1M19,27h1M20,27h1M21,27h1M22,27h1M24,27h1M25,27h1M29,27h1M30,27h1M35,27h1M36,27h1M40,27h1M0,28h1M1,28h1M4,28h1M6,28h1M9,28h1M10,28h1M11,28h1M13,28h1M16,28h1M17,28h1M18,28h1M21,28h1M22,28h1M23,28h1M24,28h1M29,28h1M32,28h1M33,28h1M35,28h1M36,28h1M39,28h1M40,28h1M2,29h1M4,29h1M8,29h1M10,29h1M12,29h1M13,29h1M15,29h1M16,29h1M18,29h1M19,29h1M20,29h1M22,29h1M24,29h1M25,29h1M26,29h1M28,29h1M29,29h1M34,29h1M35,29h1M37,29h1M38,29h1M40,29h1M0,30h1M4,30h1M6,30h1M8,30h1M9,30h1M10,30h1M11,30h1M13,30h1M15,30h1M17,30h1M18,30h1M22,30h1M23,30h1M24,30h1M26,30h1M28,30h1M29,30h1M32,30h1M35,30h1M40,30h1M2,31h1M4,31h1M5,31h1M8,31h1M9,31h1M15,31h1M17,31h1M21,31h1M24,31h1M26,31h1M28,31h1M30,31h1M31,31h1M34,31h1M35,31h1M37,31h1M40,31h1M0,32h1M3,32h1M5,32h1M6,32h1M7,32h1M9,32h1M12,32h1M13,32h1M21,32h1M24,32h1M25,32h1M26,32h1M30,32h1M32,32h1M33,32h1M34,32h1M35,32h1M36,32h1M38,32h1M39,32h1M8,33h1M9,33h1M10,33h1M12,33h1M14,33h1M17,33h1M20,33h1M22,33h1M24,33h1M25,33h1M26,33h1M27,33h1M29,33h1M31,33h1M32,33h1M36,33h1M40,33h1M0,34h1M1,34h1M2,34h1M3,34h1M4,34h1M5,34h1M6,34h1M14,34h1M15,34h1M16,34h1M18,34h1M19,34h1M20,34h1M21,34h1M22,34h1M24,34h1M25,34h1M30,34h1M32,34h1M34,34h1M36,34h1M38,34h1M0,35h1M6,35h1M8,35h1M11,35h1M13,35h1M15,35h1M16,35h1M18,35h1M19,35h1M20,35h1M23,35h1M25,35h1M27,35h1M28,35h1M30,35h1M31,35h1M32,35h1M36,35h1M38,35h1M39,35h1M0,36h1M2,36h1M3,36h1M4,36h1M6,36h1M10,36h1M11,36h1M13,36h1M14,36h1M15,36h1M18,36h1M24,36h1M26,36h1M29,36h1M32,36h1M33,36h1M34,36h1M35,36h1M36,36h1M39,36h1M40,36h1M0,37h1M2,37h1M3,37h1M4,37h1M6,37h1M8,37h1M9,37h1M10,37h1M13,37h1M17,37h1M18,37h1M19,37h1M20,37h1M21,37h1M22,37h1M24,37h1M25,37h1M29,37h1M30,37h1M33,37h1M34,37h1M35,37h1M36,37h1M37,37h1M0,38h1M2,38h1M3,38h1M4,38h1M6,38h1M11,38h1M13,38h1M17,38h1M18,38h1M21,38h1M22,38h1M23,38h1M28,38h1M29,38h1M30,38h1M33,38h1M36,38h1M38,38h1M40,38h1M0,39h1M6,39h1M9,39h1M11,39h1M12,39h1M16,39h1M17,39h1M18,39h1M21,39h1M22,39h1M23,39h1M25,39h1M28,39h1M29,39h1M30,39h1M32,39h1M33,39h1M34,39h1M39,39h1M0,40h1M1,40h1M2,40h1M3,40h1M4,40h1M5,40h1M6,40h1M8,40h1M9,40h1M11,40h1M12,40h1M13,40h1M15,40h1M18,40h1M19,40h1M20,40h1M21,40h1M22,40h1M24,40h1M27,40h1M28,40h1M29,40h1M32,40h1M33,40h1M36,40h1M39,40h1"/>
	</g>
</svg>
